<?xml version="1.0" encoding="utf-8"?>
<!-- Generator: Adobe Illustrator 19.0.0, SVG Export Plug-In . SVG Version: 6.00 Build 0)  -->
<svg version="1.1" id="Layer_1" xmlns="http://www.w3.org/2000/svg" xmlns:xlink="http://www.w3.org/1999/xlink" x="0px" y="0px"
	 viewBox="-255 347 100 100" style="enable-background:new -255 347 100 100;" xml:space="preserve">
<style type="text/css">
	.st0{fill:#324D5B;}
	.st1{fill:#EFC75E;}
	.st2{fill:#DEB957;}
	.st3{fill:#26A6D1;}
	.st4{fill:#1795BF;}
	.st5{fill:#5B717C;}
	.st6{fill:#F26C4F;}
	.st7{fill:#F4F0D3;}
	.st8{fill:#8BA0AB;}
	.st9{fill:#1483A8;}
	.st10{fill:#DAD3AF;}
</style>
<path class="st0" d="M-205,347c-27.6,0-50,22.4-50,50c0,27.6,22.4,50,50,50c27.6,0,50-22.4,50-50C-155,369.4-177.4,347-205,347z"/>
<path class="st1" d="M-201,394c2.7,2.7,2.7,7,0,9.6c-2.7,2.7-10.4,6.1-13.1,3.4s0.8-10.4,3.4-13.1C-208,391.3-203.7,391.3-201,394z"
	/>
<path class="st2" d="M-209,392.8l0,0.2c0,5,4,9,9,9l0.2,0c1.4-2.6,1-5.8-1.2-8C-203.2,391.8-206.4,391.4-209,392.8z"/>
<path class="st3" d="M-253.5,409c4.8,19.3,20.7,34.1,40.5,37.3c-1.1-20.8-18.3-37.3-39.4-37.3C-252.8,409-253.2,409-253.5,409z"/>
<g>
	<path class="st4" d="M-242.6,429.9c3.2-0.4,5.6-3.1,5.6-6.4c0-3.6-2.9-6.5-6.5-6.5c-2.5,0-4.6,1.4-5.7,3.4
		C-247.4,423.8-245.2,427-242.6,429.9z"/>
	<circle class="st4" cx="-226" cy="431" r="4"/>
</g>
<path class="st1" d="M-240,353c-0.6,5.4-3.6,8.4-9,9c5.4,0.6,8.4,3.6,9,9c0.6-5.4,3.6-8.4,9-9C-236.4,361.4-239.4,358.4-240,353z
	 M-183,421c-0.5,4.2-2.8,6.5-7,7c4.2,0.5,6.5,2.8,7,7c0.5-4.2,2.8-6.5,7-7C-180.2,427.5-182.5,425.2-183,421z"/>
<path class="st5" d="M-166,392c-0.3,3-2,4.7-5,5c3,0.3,4.7,2,5,5c0.3-3,2-4.7,5-5C-164,396.7-165.7,395-166,392z M-236,390
	c-0.3,2.4-1.6,3.7-4,4c2.4,0.3,3.7,1.6,4,4c0.3-2.4,1.6-3.7,4-4C-234.4,393.7-235.7,392.4-236,390z M-208,418c-0.3,3-2,4.7-5,5
	c3,0.3,4.7,2,5,5c0.3-3,2-4.7,5-5C-206,422.7-207.7,421-208,418z"/>
<path class="st6" d="M-187,379c8.1,8.1,9.8,19.7,2,27.5l-3.7,3.7c-7.7,7.7-2.4-10.8-10.5-19c-8.1-8.1-26.7-2.8-19-10.5l3.7-3.7
	C-206.8,369.3-195.2,370.9-187,379z"/>
<path class="st7" d="M-160,352c2.5,2.5,1.4,18.2-13.8,33.4c-9.9,9.9-16.2,13.4-16.2,13.4c-6.6,4.4-9.8,1.4-14-2.8
	c-4.2-4.2-7.3-7.4-2.8-14c0,0,3.5-6.3,13.4-16.2C-178.2,350.7-162.5,349.5-160,352z"/>
<path class="st8" d="M-180,377.2c-1.4,0-2.7-0.5-3.7-1.5c-2-2-2-5.4,0-7.4c1-1,2.3-1.5,3.7-1.5c1.4,0,2.7,0.5,3.7,1.5
	c1,1,1.5,2.3,1.5,3.7c0,1.4-0.5,2.7-1.5,3.7S-178.6,377.2-180,377.2z"/>
<path class="st0" d="M-180,367.5c1.2,0,2.3,0.5,3.2,1.3c0.9,0.9,1.3,2,1.3,3.2c0,1.2-0.5,2.3-1.3,3.2c-0.8,0.9-2,1.3-3.2,1.3
	c-1.2,0-2.3-0.5-3.2-1.3c-1.8-1.8-1.8-4.6,0-6.4C-182.4,368-181.2,367.5-180,367.5 M-180,366c-1.5,0-3.1,0.6-4.2,1.8
	c-2.3,2.3-2.3,6.1,0,8.5c1.2,1.2,2.7,1.8,4.2,1.8c1.5,0,3.1-0.6,4.2-1.8c2.3-2.3,2.3-6.1,0-8.5C-177,366.6-178.5,366-180,366z"/>
<path class="st9" d="M-227,429c2.2,0,4,1.8,4,4c0,0.2,0,0.5-0.1,0.7c0.7-0.7,1.1-1.7,1.1-2.7c0-2.2-1.8-4-4-4c-2,0-3.6,1.4-3.9,3.3
	C-229.2,429.5-228.2,429-227,429z M-243.5,417c-2.5,0-4.6,1.4-5.7,3.4l0.2,0.4c1.2-1.1,2.7-1.8,4.5-1.8c3.6,0,6.5,2.9,6.5,6.5
	c0,0.6-0.1,1.3-0.3,1.8c0.8-1.1,1.3-2.4,1.3-3.8C-237,419.9-239.9,417-243.5,417z"/>
<path class="st6" d="M-173.7,352.9c0.7,3,2.3,6.1,5,8.8c2.3,2.3,4.9,3.8,7.6,4.7c2.7-7.3,2.5-12.9,1.1-14.3
	C-161.4,350.7-166.7,350.4-173.7,352.9z"/>
<path class="st10" d="M-187,396.8c-7,4.7-10.4,1.5-14.7-2.9c-4.4-4.4-7.7-7.8-2.9-14.8c0,0,0.5-0.8,1.5-2.3
	c-2.6,3.4-3.7,5.3-3.7,5.3c-4.5,6.6-1.4,9.8,2.8,14c4.2,4.2,7.4,7.2,14,2.8c0,0,1.2-0.6,3.2-2.1L-187,396.8z"/>
<path class="st6" d="M-189.3,382.3c1.2,1.2-1.1,5.4-6.8,11.2c-5.8,5.8-9.3,7.3-10.5,6.1c-1.2-1.2,0.4-4.7,6.1-10.5
	C-194.7,383.4-190.5,381.1-189.3,382.3z"/>
</svg>
